<svg id="Capa_1" data-name="Capa 1" xmlns="http://www.w3.org/2000/svg" viewBox="0 0 500.42 500.42"><defs><style>.cls-1{fill:#f6f6f6;}.cls-2{fill:#ed6d28;}.cls-3{fill:#233941;}</style></defs><title>logo</title><path class="cls-1" d="M500.49,250.21c0,138.18-112,250.21-250.21,250.21S.08,388.39.08,250.21,112.1,0,250.28,0,500.49,112,500.49,250.21Z" transform="translate(-0.08)"/><path class="cls-2" d="M449.58,143.3V195a95.89,95.89,0,0,0-169.36,28.25l0,0-36.45,63.18-56.44,97.73L35.8,121.76H80L187.29,307.67l61.34-106.2,18.57-32.16a132.89,132.89,0,0,1,182.38-26Z" transform="translate(-0.08)"/><path class="cls-3" d="M471.43,247.56v91.81s0,.07-.08.07a132.92,132.92,0,0,1-227.62-53l36.46-63.19A96,96,0,0,0,371.92,347.1,95.24,95.24,0,0,0,435,323.41V247.56Z" transform="translate(-0.08)"/></svg>