<?xml version="1.0" encoding="utf-8"?>
<!-- Generator: Adobe Illustrator 23.0.2, SVG Export Plug-In . SVG Version: 6.00 Build 0)  -->
<svg version="1.1" id="Capa_1" xmlns="http://www.w3.org/2000/svg" xmlns:xlink="http://www.w3.org/1999/xlink" x="0px" y="0px"
	 viewBox="0 0 500 500" enable-background="new 0 0 500 500" xml:space="preserve">
<path fill="#F6F6F6" d="M500.49,250.21c0,138.19-112.02,250.21-250.21,250.21S0.08,388.39,0.08,250.21C0.08,112.02,112.1,0,250.28,0
	S500.49,112.02,500.49,250.21z"/>
<g>
	<path fill="#ED6D28" d="M449.58,143.3v51.68c-17.41-24.04-45.68-39.67-77.66-39.67c-27.67,0-52.62,11.75-70.13,30.53
		c-9.81,10.52-17.29,23.26-21.57,37.38c-0.04,0.03-0.04,0.03-0.04,0.03l-36.46,63.18l-56.44,97.73L35.8,121.76h44.15l107.34,185.91
		l61.34-106.2l18.57-32.16c17.69-22.59,42.53-39.31,71.13-46.76c10.73-2.83,21.99-4.31,33.6-4.31
		C400.9,118.24,427.72,127.52,449.58,143.3z"/>
	<path fill="#233941" d="M471.43,247.56v91.81c-0.04,0.04-0.04,0.07-0.08,0.07c-24.34,27.42-59.86,44.72-99.43,44.72
		c-61.2,0-112.77-41.41-128.2-97.73l36.46-63.19c-2.68,8.86-4.14,18.25-4.14,27.96c0,52.94,42.93,95.9,95.87,95.9
		c24.19,0,46.21-8.93,63.04-23.69v-75.85L471.43,247.56L471.43,247.56z"/>
</g>
</svg>
